# xmcd
#
# Track frame offsets:
#	150
#	17456
#	31412
#	47876
#	85686
#	94584
#	107923
#	125535
#	152365
#	165958
#	178872
#	209370
#	221460
#	239210
#	282420
#	292406
#
# Disc length: 4090 seconds
#
# Revision: 1
# Processed by: cddbd v1.5.2PL0 Copyright (c) Steve Scherf et al.
# Submitted via: EZCDAudioConverter 1.3.4.1
#
DISCID=e30ff810
DTITLE=John Martyn - Inside Out
DYEAR=1973
DGENRE=
TTITLE0=Fine Lines
TTITLE1=Eibhli Ghail Chiuin Ni Chearbhail
TTITLE2=Ain't No Saint
TTITLE3=Outside In
TTITLE4=The Glory Of Love
TTITLE5=Look In
TTITLE6=Beverley
TTITLE7=Make No Mistake
TTITLE8=Ways To Cry
TTITLE9=So Much In Love With You
TTITLE10=Make No Mistake [Alternate Take]
TTITLE11=The Glory Of Love [Take 1]
TTITLE12=Fine Lines [Take 2]
TTITLE13=Outside In [Alternate Take]
TTITLE14=Beverley [BBC Old Grey Whistle Test]
TTITLE15=Make No Mistake [BBC Old Grey Whistle Test]
EXTD=
EXTT0=
EXTT1=
EXTT2=
EXTT3=
EXTT4=
EXTT5=
EXTT6=
EXTT7=
EXTT8=
EXTT9=
EXTT10=
EXTT11=
EXTT12=
EXTT13=
EXTT14=
EXTT15=
PLAYORDER=
